# Blender v3.2.1 OBJ File: 'RedSlice.blend'
# www.blender.org
mtllib RedSlice.mtl
o Pizza_Slice_Cube.003
v -0.535929 0.001998 -0.990107
v -0.535929 0.091640 -0.990107
v -0.535929 0.038333 -0.990107
v 0.535929 0.001998 -0.990107
v 0.535929 0.091640 -0.990107
v 0.535929 0.038333 -0.990107
v -0.000000 0.091640 -1.131534
v -0.000000 0.001998 -1.131534
v 0.000001 0.038333 -1.131534
v 0.031221 0.001998 -0.014337
v -0.031221 0.001998 -0.014337
v 0.000000 0.001998 0.032181
v -0.031221 0.054225 -0.014337
v 0.031221 0.054225 -0.014337
v 0.000000 0.054225 0.032181
v -0.031221 0.031318 -0.014337
v 0.031221 0.031318 -0.014337
v 0.000000 0.031318 0.032181
v -0.487891 0.001998 -0.897234
v -0.487891 0.038333 -0.897234
v 0.487891 0.001998 -0.897234
v -0.000000 0.001998 -1.022651
v 0.487891 0.038333 -0.897234
v 0.487891 0.091640 -0.897234
v -0.487891 0.091640 -0.897234
v -0.000000 0.091640 -1.022651
v -0.000000 0.114791 -1.106279
v 0.505020 0.114791 -0.964852
v -0.505020 0.114791 -0.964852
v -0.487891 0.114791 -0.922489
v 0.487891 0.114791 -0.922489
v -0.000000 0.114791 -1.047906
v -0.293219 0.001998 -1.093090
v -0.293219 0.091640 -1.093090
v -0.293219 0.038333 -1.093090
v -0.015611 0.001998 0.010332
v -0.015611 0.054225 0.010332
v -0.015611 0.031318 0.010332
v -0.269201 0.001998 -0.992213
v -0.269200 0.091640 -0.992212
v -0.277765 0.114791 -1.067836
v -0.269200 0.114791 -1.017467
v 0.300234 0.091640 -1.084672
v 0.300235 0.038333 -1.084672
v 0.300234 0.001998 -1.084672
v 0.015611 0.001998 0.010332
v 0.015611 0.054225 0.010332
v 0.015611 0.031318 0.010332
v 0.276216 0.001998 -0.983794
v 0.276216 0.091640 -0.983794
v 0.284780 0.114791 -1.059417
v 0.276216 0.114791 -1.009049
v -0.528826 0.038333 -0.931454
v -0.000000 0.001998 -1.077092
v -0.528826 0.091640 -0.931454
v -0.528826 0.001998 -0.931454
v 0.526525 0.001998 -0.929055
v 0.526525 0.038333 -0.929055
v 0.526525 0.091640 -0.929055
v -0.496456 0.114791 -0.943671
v 0.496456 0.114791 -0.943671
v -0.000000 0.114791 -1.077092
v -0.273483 0.114791 -1.042651
v -0.281210 0.001998 -1.042651
v 0.280498 0.114791 -1.034233
v 0.288225 0.001998 -1.034233
v -0.396557 0.001998 -0.720655
v -0.305223 0.001998 -0.544075
v -0.213889 0.001998 -0.367496
v -0.122555 0.001998 -0.190916
v 0.396557 0.001998 -0.720655
v 0.305223 0.001998 -0.544075
v 0.213889 0.001998 -0.367496
v 0.122555 0.001998 -0.190916
v 0.396557 0.035113 -0.720655
v 0.305223 0.029804 -0.544075
v 0.213889 0.036662 -0.367496
v 0.122555 0.031318 -0.190916
v 0.392969 0.083738 -0.723303
v 0.297955 0.073175 -0.544075
v 0.213889 0.072772 -0.367496
v 0.120226 0.063579 -0.190710
v -0.000000 0.091074 -0.827315
v -0.002079 0.076237 -0.575816
v -0.000000 0.069004 -0.389752
v 0.000971 0.063579 -0.207344
v -0.122555 0.031318 -0.190916
v -0.213889 0.044974 -0.367496
v -0.305223 0.031591 -0.544075
v -0.396557 0.034987 -0.720655
v -0.000000 0.001998 -0.178786
v -0.000000 0.001998 -0.389752
v -0.000000 0.001998 -0.600718
v -0.000000 0.001998 -0.811685
v -0.120779 0.063579 -0.190916
v -0.213889 0.073175 -0.359307
v -0.305223 0.072436 -0.544075
v -0.396557 0.088309 -0.728972
v -0.066328 0.063579 -0.190177
v -0.117046 0.068461 -0.390686
v -0.167764 0.073813 -0.573583
v -0.218482 0.090048 -0.785235
v -0.218483 0.001998 -0.791704
v -0.167765 0.001998 -0.591195
v -0.117047 0.001998 -0.390686
v -0.066329 0.001998 -0.190177
v 0.067732 0.001998 -0.188494
v 0.119853 0.001998 -0.387319
v 0.171974 0.001998 -0.586144
v 0.224095 0.001998 -0.784969
v 0.224095 0.088283 -0.784969
v 0.171974 0.072915 -0.586144
v 0.119853 0.073154 -0.387319
v 0.067732 0.063579 -0.205625
v -0.175720 0.090931 -0.495159
v -0.226080 0.091896 -0.517574
v 0.114406 0.059572 -0.272916
v 0.029821 0.062675 -0.344623
v -0.151563 0.088998 -0.445640
v -0.209522 0.085873 -0.359810
v -0.164913 0.087000 -0.392186
v 0.085175 0.061642 -0.324155
v -0.018178 0.081941 -0.315524
v 0.058402 0.089777 -0.579292
v 0.067676 0.087685 -0.524987
v 0.086229 0.091440 -0.626856
v -0.035317 0.078473 -0.221413
v -0.043886 0.080405 -0.271582
v -0.279079 0.091440 -0.502396
v -0.166837 0.069467 -0.504498
v -0.225199 0.070585 -0.530475
v 0.003518 0.077048 -0.188490
v 0.093645 0.077840 -0.220728
v -0.138841 0.067227 -0.447110
v -0.206010 0.063605 -0.347641
v -0.154312 0.064912 -0.385162
v 0.054450 0.076798 -0.188220
v 0.102765 0.079685 -0.270803
v 0.198102 0.069467 -0.636198
v 0.138184 0.070585 -0.658354
v 0.229743 0.067227 -0.580736
v 0.029778 0.082362 -0.332677
v 0.077542 0.081471 -0.315015
v -0.286620 0.070057 -0.512885
v 0.058413 0.056227 -0.177210
v 0.103837 0.057433 -0.214884
v -0.000612 0.056516 -0.177524
v -0.055549 0.060407 -0.273820
v -0.045619 0.058167 -0.215678
v -0.025755 0.062187 -0.324744
v 0.109714 0.086144 -0.489350
v 0.207270 0.087000 -0.524245
v 0.164844 0.085873 -0.489057
v 0.217142 0.088998 -0.578448
v 0.138138 0.091896 -0.645423
v 0.189839 0.090931 -0.626305
v 0.169134 0.063605 -0.477140
v 0.218303 0.064912 -0.517919
v 0.105243 0.063919 -0.477479
v 0.045777 0.068130 -0.581714
v 0.056526 0.065706 -0.518779
v 0.078027 0.070057 -0.636837
v -0.310799 0.095818 -0.797637
v -0.301525 0.093727 -0.743331
v -0.282972 0.097481 -0.845201
v -0.171099 0.075508 -0.854543
v -0.231017 0.076626 -0.876699
v -0.139458 0.073268 -0.799081
v -0.259487 0.092185 -0.707695
v -0.161931 0.093041 -0.742589
v -0.204358 0.091914 -0.707402
v -0.152059 0.095039 -0.796793
v -0.231063 0.097937 -0.863768
v -0.179362 0.096972 -0.844650
v -0.200067 0.069646 -0.695484
v -0.150898 0.070953 -0.736264
v -0.263958 0.069960 -0.695824
v -0.323424 0.074171 -0.800059
v -0.312675 0.071747 -0.737124
v -0.291174 0.076098 -0.855181
v 0.025287 0.099267 -0.873578
v 0.035636 0.098624 -0.819430
v 0.052165 0.100094 -0.921706
v 0.164103 0.079246 -0.932707
v 0.103758 0.079097 -0.953701
v 0.196837 0.078752 -0.877839
v 0.078371 0.098465 -0.784600
v 0.175216 0.099638 -0.821416
v 0.133495 0.098866 -0.785384
v 0.184011 0.100420 -0.875835
v 0.103695 0.100718 -0.941295
v 0.155765 0.100846 -0.923180
v 0.138294 0.076951 -0.773014
v 0.186644 0.077846 -0.814772
v 0.074410 0.076487 -0.772106
v 0.012890 0.077416 -0.875223
v 0.024884 0.076671 -0.812471
v 0.044040 0.078375 -0.930999
v 0.323780 0.094696 -0.797119
v 0.333775 0.092542 -0.742944
v 0.350974 0.096464 -0.845044
v 0.454583 0.096100 -0.845864
v 0.402632 0.097019 -0.864295
v 0.376282 0.091010 -0.707868
v 0.311619 0.073076 -0.800511
v 0.323202 0.070580 -0.737727
v 0.343134 0.075125 -0.856052
v 0.463208 0.074703 -0.857002
v 0.403001 0.075768 -0.878362
v 0.372463 0.068804 -0.697077
vn 0.0023 0.9993 0.0379
vn -0.8928 0.0993 0.4394
vn 0.5096 0.4731 0.7186
vn -0.0024 0.4715 0.8819
vn 0.8470 0.4795 0.2295
vn 0.7667 0.4876 -0.4177
vn -0.8599 0.4830 0.1655
vn 0.7920 0.4876 -0.3673
vn 0.0047 0.9993 0.0377
vn -0.2432 0.4950 -0.8342
vn 0.3615 0.4937 -0.7909
vn -0.0047 -0.9993 -0.0377
vn 0.8601 0.4795 0.1743
vn 0.5549 0.4731 0.6843
vn -0.7594 0.4907 -0.4272
vn -0.2965 0.4950 -0.8168
vn 0.3097 0.4937 -0.8126
vn -0.5587 0.4754 0.6796
vn -0.0023 -0.9993 -0.0379
vn 0.0088 0.4930 0.8700
vn -0.0071 0.9999 0.0132
vn -0.8625 0.4765 0.1705
vn 0.7523 0.4864 -0.4444
vn 0.0071 -0.9999 -0.0132
vn 0.8572 0.4939 0.1456
vn 0.5621 0.4965 0.6615
vn -0.7737 0.4709 -0.4240
vn -0.3184 0.4711 -0.8226
vn 0.2877 0.4773 -0.8303
vn -0.5513 0.4852 0.6787
vn 0.0038 0.9992 0.0390
vn 0.8647 0.0914 0.4940
vn 0.2916 0.5315 -0.7953
vn -0.3027 0.5224 -0.7972
vn -0.7636 0.4946 -0.4150
vn -0.5629 0.4375 0.7012
vn -0.8693 0.4609 0.1787
vn -0.0038 -0.9992 -0.0390
vn 0.0102 0.9990 0.0425
vn -0.0019 0.9991 0.0427
vn 0.0039 0.9991 0.0425
vn 0.0080 0.9988 0.0482
vn -0.1300 0.0000 -0.9915
vn -0.9927 0.0000 0.1202
vn 0.8873 0.0322 0.4601
vn 0.8873 0.0323 0.4600
vn 0.8895 0.0359 0.4555
vn 0.8882 0.0000 0.4594
vn -0.5116 0.7276 0.4571
vn 0.0000 -1.0000 0.0000
vn 0.3724 -0.0000 -0.9281
vn 0.8137 0.0000 0.5813
vn -0.8450 -0.0000 0.5347
vn -0.8882 0.0000 0.4594
vn -0.0004 1.0000 0.0092
vn 0.0013 1.0000 0.0080
vn 0.6358 0.0000 0.7719
vn -0.8828 0.0365 0.4683
vn -0.2332 0.8139 -0.5321
vn 0.0000 1.0000 -0.0000
vn -0.2663 0.7105 0.6513
vn 0.0762 0.7350 0.6738
vn 0.6140 0.7778 0.1342
vn 0.1048 0.7488 -0.6544
vn 0.2816 0.7073 0.6484
vn -0.0886 0.7476 -0.6582
vn 0.0005 0.9999 0.0129
vn -0.8137 -0.0000 0.5813
vn -0.3906 0.0000 -0.9206
vn 0.2236 0.8120 -0.5391
vn -0.0946 0.7338 0.6727
vn 0.8450 -0.0000 0.5347
vn 0.1542 -0.0000 -0.9880
vn 0.0072 0.9987 0.0502
vn 0.5131 0.7266 0.4569
vn 0.9883 0.0000 0.1522
vn -0.6414 0.0000 0.7672
vn -0.6021 0.7896 0.1182
vn 0.0002 0.9995 0.0303
vn -0.0084 0.9978 0.0652
vn 0.0004 1.0000 0.0006
vn -0.0089 0.9988 0.0487
vn -0.0208 0.9981 0.0572
vn 0.0362 0.9990 0.0251
vn 0.0159 0.9999 0.0064
vn 0.0110 0.9970 0.0768
vn -0.8894 0.0286 0.4563
vn -0.8823 -0.0376 0.4692
vn -0.8903 -0.0536 0.4522
vn -0.8909 0.0400 0.4524
vn -0.0024 0.9991 0.0427
vn -0.0006 0.9996 0.0270
vn -0.0054 0.9995 0.0312
vn -0.0013 0.9996 0.0277
vn -0.0103 0.9993 0.0356
vn -0.0012 0.9977 0.0671
vn 0.0097 0.9976 0.0681
vn 0.0043 0.9977 0.0676
vn 0.8817 0.0432 0.4699
vn 0.8776 0.1170 0.4649
vn 0.8932 0.0817 0.4421
vn 0.8851 0.0288 0.4645
vn 0.0039 0.9999 0.0105
vn 0.0098 0.9976 0.0681
vn -0.0023 0.9998 0.0179
vn -0.0231 0.9990 0.0379
usemtl DarkRed
s 1
f 115//1 116//1 129//1 120//1 121//1 119//1
f 144//2 135//2 120//2 129//2
f 120//3 135//3 136//3 121//3
f 151//4 159//4 157//4 153//4
f 134//5 119//5 121//5 136//5
f 122//6 143//6 138//6 117//6
f 128//7 148//7 149//7 127//7
f 130//8 115//8 119//8 134//8
f 156//9 155//9 126//9 124//9 125//9 151//9 153//9 152//9 154//9
f 124//7 160//7 161//7 125//7
f 116//10 131//10 144//10 129//10
f 115//11 130//11 131//11 116//11
f 143//9 142//9 123//9 128//9 127//9 132//9 137//9 133//9 138//9
f 132//4 147//4 145//4 137//4
f 122//12 117//12 146//12 145//12 147//12 149//12 148//12 150//12 118//12
f 117//13 138//13 133//13 146//13
f 137//14 145//14 146//14 133//14
f 139//6 156//6 154//6 141//6
f 123//15 150//15 148//15 128//15
f 142//16 118//16 150//16 123//16
f 143//17 122//17 118//17 142//17
f 147//18 132//18 127//18 149//18
f 139//12 141//12 158//12 157//12 159//12 161//12 160//12 162//12 140//12
f 130//19 134//19 136//19 135//19 144//19 131//19
f 141//13 154//13 152//13 158//13
f 153//14 157//14 158//14 152//14
f 126//15 162//15 160//15 124//15
f 155//16 140//16 162//16 126//16
f 156//17 139//17 140//17 155//17
f 159//18 151//18 125//18 161//18
f 169//4 177//4 175//4 171//4
f 174//9 173//9 165//9 163//9 164//9 169//9 171//9 170//9 172//9
f 163//7 178//7 179//7 164//7
f 166//6 174//6 172//6 168//6
f 166//12 168//12 176//12 175//12 177//12 179//12 178//12 180//12 167//12
f 168//13 172//13 170//13 176//13
f 171//14 175//14 176//14 170//14
f 165//15 180//15 178//15 163//15
f 173//16 167//16 180//16 165//16
f 174//17 166//17 167//17 173//17
f 177//18 169//18 164//18 179//18
f 187//20 195//20 193//20 189//20
f 192//21 191//21 183//21 181//21 182//21 187//21 189//21 188//21 190//21
f 181//22 196//22 197//22 182//22
f 184//23 192//23 190//23 186//23
f 184//24 186//24 194//24 193//24 195//24 197//24 196//24 198//24 185//24
f 186//25 190//25 188//25 194//25
f 189//26 193//26 194//26 188//26
f 183//27 198//27 196//27 181//27
f 191//28 185//28 198//28 183//28
f 192//29 184//29 185//29 191//29
f 195//30 187//30 182//30 197//30
f 199//31 200//31 204//31 202//31 203//31 201//31
f 210//32 208//32 202//32 204//32
f 202//33 208//33 209//33 203//33
f 207//34 201//34 203//34 209//34
f 205//35 199//35 201//35 207//35
f 200//36 206//36 210//36 204//36
f 199//37 205//37 206//37 200//37
f 205//38 207//38 209//38 208//38 210//38 206//38
usemtl Red
f 114//39 86//40 15//41 47//42
f 35//43 34//43 7//43 9//43
f 53//44 55//44 2//44 3//44
f 78//45 82//46 14//47 17//47
f 74//48 78//48 17//48 10//48
f 55//49 25//49 30//49 60//49
f 33//43 35//43 9//43 8//43
f 66//50 54//50 8//50 45//50
f 106//50 91//50 12//50 36//50
f 44//51 43//51 5//51 6//51
f 45//51 44//51 6//51 4//51
f 48//52 47//52 15//52 18//52
f 46//52 48//52 18//52 12//52
f 56//44 53//44 3//44 1//44
f 38//53 37//53 13//53 16//53
f 36//53 38//53 16//53 11//53
f 67//54 90//54 20//54 19//54
f 64//50 54//50 22//50 39//50
f 110//50 94//50 22//50 49//50
f 102//55 83//56 26//56 40//55
f 57//57 58//57 23//57 21//57
f 58//57 59//57 24//57 23//57
f 90//58 98//58 25//58 20//58
f 34//59 2//59 29//59 41//59
f 63//60 62//60 27//60 41//60
f 65//60 62//60 32//60 52//60
f 50//61 24//61 31//61 52//61
f 40//62 26//62 32//62 42//62
f 59//63 5//63 28//63 61//63
f 43//64 7//64 27//64 51//64
f 25//65 40//65 42//65 30//65
f 60//60 63//60 41//60 29//60
f 7//66 34//66 41//66 27//66
f 98//67 102//55 40//55 25//67
f 56//50 64//50 39//50 19//50
f 12//68 18//68 38//68 36//68
f 18//68 15//68 37//68 38//68
f 70//50 106//50 36//50 11//50
f 1//69 3//69 35//69 33//69
f 3//69 2//69 34//69 35//69
f 5//70 43//70 51//70 28//70
f 26//71 50//71 52//71 32//71
f 61//60 65//60 52//60 31//60
f 71//50 110//50 49//50 21//50
f 10//72 17//72 48//72 46//72
f 17//72 14//72 47//72 48//72
f 8//73 9//73 44//73 45//73
f 9//73 7//73 43//73 44//73
f 57//50 66//50 45//50 4//50
f 82//74 114//39 47//42 14//74
f 21//50 49//50 66//50 57//50
f 28//60 51//60 65//60 61//60
f 1//50 33//50 64//50 56//50
f 30//60 42//60 63//60 60//60
f 24//75 59//75 61//75 31//75
f 51//60 27//60 62//60 65//60
f 42//60 32//60 62//60 63//60
f 6//76 5//76 59//76 58//76
f 4//76 6//76 58//76 57//76
f 33//50 8//50 54//50 64//50
f 19//77 20//77 53//77 56//77
f 49//50 22//50 54//50 66//50
f 2//78 55//78 60//78 29//78
f 20//77 25//77 55//77 53//77
f 24//79 50//79 111//79 79//79
f 79//80 111//80 112//80 80//80
f 80//81 112//81 113//81 81//81
f 81//82 113//82 114//82 82//82
f 10//50 46//50 107//50 74//50
f 74//50 107//50 108//50 73//50
f 73//50 108//50 109//50 72//50
f 72//50 109//50 110//50 71//50
f 19//50 39//50 103//50 67//50
f 67//50 103//50 104//50 68//50
f 68//50 104//50 105//50 69//50
f 69//50 105//50 106//50 70//50
f 13//83 37//83 99//83 95//83
f 95//84 99//84 100//84 96//84
f 96//85 100//85 101//85 97//85
f 97//86 101//86 102//86 98//86
f 16//87 13//87 95//87 87//87
f 87//88 95//88 96//88 88//88
f 88//89 96//89 97//89 89//89
f 89//90 97//90 98//90 90//90
f 37//91 15//41 86//40 99//91
f 99//92 86//92 85//93 100//94
f 100//94 85//93 84//95 101//95
f 101//96 84//97 83//98 102//96
f 46//50 12//50 91//50 107//50
f 107//50 91//50 92//50 108//50
f 108//50 92//50 93//50 109//50
f 109//50 93//50 94//50 110//50
f 11//54 16//54 87//54 70//54
f 70//54 87//54 88//54 69//54
f 69//54 88//54 89//54 68//54
f 68//54 89//54 90//54 67//54
f 39//50 22//50 94//50 103//50
f 103//50 94//50 93//50 104//50
f 104//50 93//50 92//50 105//50
f 105//50 92//50 91//50 106//50
f 21//48 23//48 75//48 71//48
f 71//48 75//48 76//48 72//48
f 72//48 76//48 77//48 73//48
f 73//48 77//48 78//48 74//48
f 23//99 24//99 79//99 75//99
f 75//100 79//100 80//100 76//100
f 76//101 80//101 81//101 77//101
f 77//102 81//102 82//46 78//45
f 50//103 26//56 83//56 111//103
f 111//104 83//98 84//97 112//104
f 112//105 84//105 85//105 113//105
f 113//106 85//106 86//106 114//106
