# Blender v3.2.1 OBJ File: 'GreenSlice.blend'
# www.blender.org
mtllib GreenSlice.mtl
o Pizza_Slice_Cube.003
v -0.535929 0.001998 -0.990107
v -0.535929 0.091640 -0.990107
v -0.535929 0.038333 -0.990107
v 0.535929 0.001998 -0.990107
v 0.535929 0.091640 -0.990107
v 0.535929 0.038333 -0.990107
v -0.000000 0.091640 -1.131534
v -0.000000 0.001998 -1.131534
v 0.000001 0.038333 -1.131534
v 0.031221 0.001998 -0.014337
v -0.031221 0.001998 -0.014337
v 0.000000 0.001998 0.032181
v -0.031221 0.054225 -0.014337
v 0.031221 0.054225 -0.014337
v 0.000000 0.054225 0.032181
v -0.031221 0.031318 -0.014337
v 0.031221 0.031318 -0.014337
v 0.000000 0.031318 0.032181
v -0.487891 0.001998 -0.897234
v -0.487891 0.038333 -0.897234
v 0.487891 0.001998 -0.897234
v -0.000000 0.001998 -1.022651
v 0.487891 0.038333 -0.897234
v 0.487891 0.091640 -0.897234
v -0.487891 0.091640 -0.897234
v -0.000000 0.091640 -1.022651
v -0.000000 0.114791 -1.106279
v 0.505020 0.114791 -0.964852
v -0.505020 0.114791 -0.964852
v -0.487891 0.114791 -0.922489
v 0.487891 0.114791 -0.922489
v -0.000000 0.114791 -1.047906
v -0.293219 0.001998 -1.093090
v -0.293219 0.091640 -1.093090
v -0.293219 0.038333 -1.093090
v -0.015611 0.001998 0.010332
v -0.015611 0.054225 0.010332
v -0.015611 0.031318 0.010332
v -0.269201 0.001998 -0.992213
v -0.269200 0.091640 -0.992212
v -0.277765 0.114791 -1.067836
v -0.269200 0.114791 -1.017467
v 0.300234 0.091640 -1.084672
v 0.300235 0.038333 -1.084672
v 0.300234 0.001998 -1.084672
v 0.015611 0.001998 0.010332
v 0.015611 0.054225 0.010332
v 0.015611 0.031318 0.010332
v 0.276216 0.001998 -0.983794
v 0.276216 0.091640 -0.983794
v 0.284780 0.114791 -1.059417
v 0.276216 0.114791 -1.009049
v -0.528826 0.038333 -0.931454
v -0.000000 0.001998 -1.077092
v -0.528826 0.091640 -0.931454
v -0.528826 0.001998 -0.931454
v 0.526525 0.001998 -0.929055
v 0.526525 0.038333 -0.929055
v 0.526525 0.091640 -0.929055
v -0.496456 0.114791 -0.943671
v 0.496456 0.114791 -0.943671
v -0.000000 0.114791 -1.077092
v -0.273483 0.114791 -1.042651
v -0.281210 0.001998 -1.042651
v 0.280498 0.114791 -1.034233
v 0.288225 0.001998 -1.034233
v -0.396557 0.001998 -0.720655
v -0.305223 0.001998 -0.544075
v -0.213889 0.001998 -0.367496
v -0.122555 0.001998 -0.190916
v 0.396557 0.001998 -0.720655
v 0.305223 0.001998 -0.544075
v 0.213889 0.001998 -0.367496
v 0.122555 0.001998 -0.190916
v 0.396557 0.035113 -0.720655
v 0.305223 0.029804 -0.544075
v 0.213889 0.036662 -0.367496
v 0.122555 0.031318 -0.190916
v 0.392969 0.083738 -0.723303
v 0.297955 0.073175 -0.544075
v 0.213889 0.072772 -0.367496
v 0.120226 0.063579 -0.190710
v -0.000000 0.091074 -0.827315
v -0.002079 0.076237 -0.575816
v -0.000000 0.069004 -0.389752
v 0.000971 0.063579 -0.207344
v -0.122555 0.031318 -0.190916
v -0.213889 0.044974 -0.367496
v -0.305223 0.031591 -0.544075
v -0.396557 0.034987 -0.720655
v -0.000000 0.001998 -0.178786
v -0.000000 0.001998 -0.389752
v -0.000000 0.001998 -0.600718
v -0.000000 0.001998 -0.811685
v -0.120779 0.063579 -0.190916
v -0.213889 0.073175 -0.359307
v -0.305223 0.072436 -0.544075
v -0.396557 0.088309 -0.728972
v -0.066328 0.063579 -0.190177
v -0.117046 0.068461 -0.390686
v -0.167764 0.073813 -0.573583
v -0.218482 0.090048 -0.785235
v -0.218483 0.001998 -0.791704
v -0.167765 0.001998 -0.591195
v -0.117047 0.001998 -0.390686
v -0.066329 0.001998 -0.190177
v 0.067732 0.001998 -0.188494
v 0.119853 0.001998 -0.387319
v 0.171974 0.001998 -0.586144
v 0.224095 0.001998 -0.784969
v 0.224095 0.088283 -0.784969
v 0.171974 0.072915 -0.586144
v 0.119853 0.062695 -0.387319
v 0.067732 0.053120 -0.205625
v 0.323780 0.090591 -0.797119
v 0.333775 0.087602 -0.742944
v 0.350974 0.090757 -0.845044
v 0.454583 0.090614 -0.845864
v 0.402632 0.091551 -0.864295
v 0.376282 0.084869 -0.707868
v 0.311619 0.082921 -0.800511
v 0.323202 0.081260 -0.737727
v 0.343134 0.086572 -0.856052
v 0.463208 0.085929 -0.857002
v 0.403001 0.086975 -0.878362
v 0.372463 0.080684 -0.697077
v -0.256968 0.097228 -0.857274
v -0.268154 0.095565 -0.736728
v -0.170977 0.099450 -0.942004
v 0.048296 0.099866 -0.880740
v -0.050420 0.098227 -0.951271
v -0.199303 0.086693 -0.636771
v -0.277000 0.064771 -0.873073
v -0.289964 0.045117 -0.733371
v -0.177345 0.071647 -0.971267
v 0.076773 0.052159 -0.900268
v -0.037629 0.052594 -0.982007
v -0.210173 0.039977 -0.617530
v -0.133031 0.079395 -0.405193
v -0.146248 0.078855 -0.334476
v -0.082101 0.076662 -0.449882
v 0.031080 0.079241 -0.399495
v -0.017289 0.074693 -0.447631
v -0.115568 0.074686 -0.270820
v -0.144764 0.057775 -0.415342
v -0.160082 0.056893 -0.333387
v -0.085741 0.055323 -0.467132
v 0.045426 0.057844 -0.408738
v -0.010629 0.053442 -0.464524
v -0.124526 0.052480 -0.259615
v 0.086703 0.064651 -0.175688
v 0.103989 0.068370 -0.237479
v 0.033715 0.061493 -0.139478
v -0.075091 0.073704 -0.191676
v -0.030183 0.069972 -0.145792
v 0.077483 0.066837 -0.295938
v 0.097688 0.043031 -0.165912
v 0.117720 0.046407 -0.237522
v 0.036279 0.040154 -0.123948
v -0.089817 0.052307 -0.184440
v -0.037773 0.048721 -0.131265
v 0.087003 0.044631 -0.305271
v 0.278562 0.077171 -0.597480
v 0.269840 0.085027 -0.717885
v 0.207621 0.073839 -0.500133
v -0.018695 0.077705 -0.524853
v 0.090273 0.069415 -0.471661
v 0.185673 0.090385 -0.805610
v 0.301589 0.044184 -0.588209
v 0.291846 0.036083 -0.729374
v 0.219286 0.043809 -0.474994
v -0.042578 0.027474 -0.505495
v 0.083657 0.020820 -0.443634
v 0.194284 0.055120 -0.830948
vn 0.0143 0.9990 0.0416
vn 0.7873 0.4086 0.4618
vn 0.1242 0.9449 -0.3029
vn -0.1202 0.9478 -0.2954
vn -0.3951 0.8986 -0.1910
vn -0.2610 0.8975 0.3555
vn -0.5129 0.8488 0.1284
vn 0.0052 -0.9993 -0.0368
vn 0.0042 0.9994 0.0333
vn 0.6931 0.1271 0.7095
vn 0.4752 0.5707 -0.6697
vn -0.0103 0.6321 -0.7748
vn -0.5548 0.6403 -0.5312
vn -0.7506 0.3784 0.5416
vn -0.8891 0.4555 -0.0452
vn -0.0355 -0.9966 -0.0742
vn 0.0107 0.9999 0.0003
vn 0.6532 0.1144 0.7485
vn 0.5277 0.6174 -0.5834
vn 0.0443 0.6268 -0.7779
vn -0.5198 0.5838 -0.6237
vn -0.7644 0.5057 0.4000
vn -0.8384 0.5234 -0.1518
vn -0.0079 -1.0000 -0.0042
vn 0.0441 0.9983 0.0380
vn -0.5578 0.1062 -0.8231
vn -0.5549 0.5898 0.5867
vn -0.0093 0.5773 0.8165
vn 0.4494 0.5544 0.7005
vn 0.7874 0.4931 -0.3699
vn 0.8153 0.5195 0.2557
vn -0.0397 -0.9988 -0.0285
vn 0.0119 0.9980 0.0627
vn -0.8006 0.1829 -0.5706
vn -0.3574 0.4912 0.7944
vn 0.1325 0.5611 0.8171
vn 0.6362 0.6089 0.4737
vn 0.6598 0.4893 -0.5703
vn 0.8739 0.4820 -0.0621
vn 0.0181 -0.9987 -0.0476
vn -0.0187 0.9998 -0.0067
vn 0.0647 0.9972 0.0382
vn 0.0655 0.9971 0.0383
vn 0.1016 0.9943 0.0314
vn -0.1300 0.0000 -0.9915
vn -0.9927 0.0000 0.1202
vn 0.8873 0.0322 0.4601
vn 0.8873 0.0323 0.4600
vn 0.8895 0.0359 0.4555
vn 0.8882 0.0000 0.4594
vn -0.5116 0.7276 0.4571
vn 0.0000 -1.0000 0.0000
vn 0.3724 -0.0000 -0.9281
vn 0.8137 0.0000 0.5813
vn -0.8450 -0.0000 0.5347
vn -0.8882 0.0000 0.4594
vn -0.0004 1.0000 0.0092
vn 0.0013 1.0000 0.0080
vn 0.6358 0.0000 0.7719
vn -0.8828 0.0365 0.4683
vn -0.2332 0.8139 -0.5321
vn 0.0000 1.0000 -0.0000
vn -0.2663 0.7105 0.6513
vn 0.0762 0.7350 0.6738
vn 0.6140 0.7778 0.1342
vn 0.1048 0.7488 -0.6544
vn 0.2816 0.7073 0.6484
vn -0.0886 0.7476 -0.6582
vn 0.0005 0.9999 0.0129
vn -0.8137 -0.0000 0.5813
vn -0.3906 0.0000 -0.9206
vn 0.2236 0.8120 -0.5391
vn -0.0946 0.7338 0.6727
vn 0.8450 -0.0000 0.5347
vn 0.1542 -0.0000 -0.9880
vn -0.1567 0.9870 -0.0356
vn 0.5131 0.7266 0.4569
vn 0.9883 0.0000 0.1522
vn -0.6414 0.0000 0.7672
vn -0.6021 0.7896 0.1182
vn 0.0002 0.9995 0.0303
vn -0.0084 0.9978 0.0652
vn -0.0498 0.9987 0.0102
vn -0.1378 0.9904 -0.0042
vn -0.0208 0.9981 0.0572
vn 0.0362 0.9990 0.0251
vn 0.0159 0.9999 0.0064
vn 0.0110 0.9970 0.0768
vn -0.8894 0.0286 0.4563
vn -0.8823 -0.0376 0.4692
vn -0.8903 -0.0536 0.4522
vn -0.8909 0.0400 0.4524
vn -0.0024 0.9991 0.0427
vn -0.0006 0.9996 0.0270
vn -0.0054 0.9995 0.0312
vn -0.0013 0.9996 0.0277
vn -0.0103 0.9993 0.0356
vn -0.0012 0.9977 0.0671
vn 0.0097 0.9976 0.0681
vn 0.0043 0.9977 0.0676
vn 0.8817 0.0432 0.4699
vn 0.8776 0.1170 0.4649
vn 0.8932 0.0817 0.4421
vn 0.8851 0.0288 0.4645
vn 0.0039 0.9999 0.0105
vn 0.0098 0.9976 0.0681
vn 0.0340 0.9982 0.0497
vn 0.0882 0.9947 0.0534
usemtl DarkGreen
s 1
f 115//1 116//1 120//1 118//1 119//1 117//1
f 126//2 124//2 118//2 120//2
f 118//3 124//3 125//3 119//3
f 123//4 117//4 119//4 125//4
f 121//5 115//5 117//5 123//5
f 116//6 122//6 126//6 120//6
f 115//7 121//7 122//7 116//7
f 121//8 123//8 125//8 124//8 126//8 122//8
f 127//9 128//9 132//9 130//9 131//9 129//9
f 138//10 136//10 130//10 132//10
f 130//11 136//11 137//11 131//11
f 135//12 129//12 131//12 137//12
f 133//13 127//13 129//13 135//13
f 128//14 134//14 138//14 132//14
f 127//15 133//15 134//15 128//15
f 133//16 135//16 137//16 136//16 138//16 134//16
f 139//17 140//17 144//17 142//17 143//17 141//17
f 150//18 148//18 142//18 144//18
f 142//19 148//19 149//19 143//19
f 147//20 141//20 143//20 149//20
f 145//21 139//21 141//21 147//21
f 140//22 146//22 150//22 144//22
f 139//23 145//23 146//23 140//23
f 145//24 147//24 149//24 148//24 150//24 146//24
f 151//25 152//25 156//25 154//25 155//25 153//25
f 162//26 160//26 154//26 156//26
f 154//27 160//27 161//27 155//27
f 159//28 153//28 155//28 161//28
f 157//29 151//29 153//29 159//29
f 152//30 158//30 162//30 156//30
f 151//31 157//31 158//31 152//31
f 157//32 159//32 161//32 160//32 162//32 158//32
f 163//33 164//33 168//33 166//33 167//33 165//33
f 174//34 172//34 166//34 168//34
f 166//35 172//35 173//35 167//35
f 171//36 165//36 167//36 173//36
f 169//37 163//37 165//37 171//37
f 164//38 170//38 174//38 168//38
f 163//39 169//39 170//39 164//39
f 169//40 171//40 173//40 172//40 174//40 170//40
usemtl Green
f 114//41 86//42 15//43 47//44
f 35//45 34//45 7//45 9//45
f 53//46 55//46 2//46 3//46
f 78//47 82//48 14//49 17//49
f 74//50 78//50 17//50 10//50
f 55//51 25//51 30//51 60//51
f 33//45 35//45 9//45 8//45
f 66//52 54//52 8//52 45//52
f 106//52 91//52 12//52 36//52
f 44//53 43//53 5//53 6//53
f 45//53 44//53 6//53 4//53
f 48//54 47//54 15//54 18//54
f 46//54 48//54 18//54 12//54
f 56//46 53//46 3//46 1//46
f 38//55 37//55 13//55 16//55
f 36//55 38//55 16//55 11//55
f 67//56 90//56 20//56 19//56
f 64//52 54//52 22//52 39//52
f 110//52 94//52 22//52 49//52
f 102//57 83//58 26//58 40//57
f 57//59 58//59 23//59 21//59
f 58//59 59//59 24//59 23//59
f 90//60 98//60 25//60 20//60
f 34//61 2//61 29//61 41//61
f 63//62 62//62 27//62 41//62
f 65//62 62//62 32//62 52//62
f 50//63 24//63 31//63 52//63
f 40//64 26//64 32//64 42//64
f 59//65 5//65 28//65 61//65
f 43//66 7//66 27//66 51//66
f 25//67 40//67 42//67 30//67
f 60//62 63//62 41//62 29//62
f 7//68 34//68 41//68 27//68
f 98//69 102//57 40//57 25//69
f 56//52 64//52 39//52 19//52
f 12//70 18//70 38//70 36//70
f 18//70 15//70 37//70 38//70
f 70//52 106//52 36//52 11//52
f 1//71 3//71 35//71 33//71
f 3//71 2//71 34//71 35//71
f 5//72 43//72 51//72 28//72
f 26//73 50//73 52//73 32//73
f 61//62 65//62 52//62 31//62
f 71//52 110//52 49//52 21//52
f 10//74 17//74 48//74 46//74
f 17//74 14//74 47//74 48//74
f 8//75 9//75 44//75 45//75
f 9//75 7//75 43//75 44//75
f 57//52 66//52 45//52 4//52
f 82//76 114//41 47//44 14//76
f 21//52 49//52 66//52 57//52
f 28//62 51//62 65//62 61//62
f 1//52 33//52 64//52 56//52
f 30//62 42//62 63//62 60//62
f 24//77 59//77 61//77 31//77
f 51//62 27//62 62//62 65//62
f 42//62 32//62 62//62 63//62
f 6//78 5//78 59//78 58//78
f 4//78 6//78 58//78 57//78
f 33//52 8//52 54//52 64//52
f 19//79 20//79 53//79 56//79
f 49//52 22//52 54//52 66//52
f 2//80 55//80 60//80 29//80
f 20//79 25//79 55//79 53//79
f 24//81 50//81 111//81 79//81
f 79//82 111//82 112//82 80//82
f 80//83 112//83 113//83 81//83
f 81//84 113//84 114//84 82//84
f 10//52 46//52 107//52 74//52
f 74//52 107//52 108//52 73//52
f 73//52 108//52 109//52 72//52
f 72//52 109//52 110//52 71//52
f 19//52 39//52 103//52 67//52
f 67//52 103//52 104//52 68//52
f 68//52 104//52 105//52 69//52
f 69//52 105//52 106//52 70//52
f 13//85 37//85 99//85 95//85
f 95//86 99//86 100//86 96//86
f 96//87 100//87 101//87 97//87
f 97//88 101//88 102//88 98//88
f 16//89 13//89 95//89 87//89
f 87//90 95//90 96//90 88//90
f 88//91 96//91 97//91 89//91
f 89//92 97//92 98//92 90//92
f 37//93 15//43 86//42 99//93
f 99//94 86//94 85//95 100//96
f 100//96 85//95 84//97 101//97
f 101//98 84//99 83//100 102//98
f 46//52 12//52 91//52 107//52
f 107//52 91//52 92//52 108//52
f 108//52 92//52 93//52 109//52
f 109//52 93//52 94//52 110//52
f 11//56 16//56 87//56 70//56
f 70//56 87//56 88//56 69//56
f 69//56 88//56 89//56 68//56
f 68//56 89//56 90//56 67//56
f 39//52 22//52 94//52 103//52
f 103//52 94//52 93//52 104//52
f 104//52 93//52 92//52 105//52
f 105//52 92//52 91//52 106//52
f 21//50 23//50 75//50 71//50
f 71//50 75//50 76//50 72//50
f 72//50 76//50 77//50 73//50
f 73//50 77//50 78//50 74//50
f 23//101 24//101 79//101 75//101
f 75//102 79//102 80//102 76//102
f 76//103 80//103 81//103 77//103
f 77//104 81//104 82//48 78//47
f 50//105 26//58 83//58 111//105
f 111//106 83//100 84//99 112//106
f 112//107 84//107 85//107 113//107
f 113//108 85//108 86//108 114//108
